<?xml version="1.0" encoding="utf-8"?>
<!-- Generator: Adobe Illustrator 21.0.2, SVG Export Plug-In . SVG Version: 6.00 Build 0)  -->
<svg version="1.1" id="Capa_1" xmlns="http://www.w3.org/2000/svg" xmlns:xlink="http://www.w3.org/1999/xlink" x="0px" y="0px"
	 viewBox="0 0 337.1 337.1" style="enable-background:new 0 0 337.1 337.1;" xml:space="preserve">
<style type="text/css">
	.st0{fill:#63BF00;}
</style>
<g>
	<path class="st0" d="M168.5,0C75.6,0,0,75.6,0,168.5c0,92.9,75.6,168.5,168.5,168.5c92.9,0,168.5-75.6,168.5-168.5
		C337.1,75.6,261.5,0,168.5,0z M224.3,177.3l-94.1,94.1c-2.4,2.4-5.6,3.6-8.7,3.6c-3.1,0-6.3-1.2-8.7-3.6c-4.8-4.8-4.8-12.6,0-17.4
		l85.4-85.4l-85.4-85.4c-4.8-4.8-4.8-12.6,0-17.4c4.8-4.8,12.6-4.8,17.4,0l94.1,94.1C229.1,164.6,229.1,172.4,224.3,177.3z"/>
</g>
</svg>
